<svg width="106" height="40" viewBox="0 0 106 40" fill="none" xmlns="http://www.w3.org/2000/svg">
<path d="M15.207 24.5547V27.3672C15.207 28.7969 14.3203 29.8789 12.5469 30.6133C11.5547 31.0273 10.4688 31.2344 9.28906 31.2344C8.10938 31.2344 7.02344 31.0273 6.03125 30.6133C4.25781 29.8789 3.37109 28.7969 3.37109 27.3672V16.9375C3.37109 15.5078 4.25781 14.4258 6.03125 13.6914C7.02344 13.2773 8.10938 13.0703 9.28906 13.0703C10.4688 13.0703 11.5547 13.2773 12.5469 13.6914C14.3203 14.4258 15.207 15.5078 15.207 16.9375V18.6953L12.9805 19.75H12.8633V16.9375C12.8633 16.4062 12.3906 15.9492 11.4453 15.5664C10.7891 15.3086 10.0703 15.1797 9.28906 15.1797C8.50781 15.1797 7.78906 15.3086 7.13281 15.5664C6.1875 15.9414 5.71484 16.3984 5.71484 16.9375V27.3672C5.71484 27.8984 6.1875 28.3555 7.13281 28.7383C7.78906 28.9961 8.50781 29.125 9.28906 29.125C10.0703 29.125 10.7891 28.9961 11.4453 28.7383C12.3906 28.3633 12.8633 27.9062 12.8633 27.3672V25.6094L15.0898 24.5547H15.207ZM19.8945 31.4688V13.8906L22.1211 12.8359H22.2383V30.4141L20.0117 31.4688H19.8945ZM36.0664 25.8086V28.3633C36.0664 29.3945 35.3359 30.1992 33.875 30.7773C33.0859 31.082 32.1953 31.2344 31.2031 31.2344C30.2109 31.2344 29.3203 31.082 28.5312 30.7773C27.0703 30.1992 26.3398 29.3945 26.3398 28.3633V20.7461C26.3398 19.7148 27.0703 18.9102 28.5312 18.332C29.3203 18.0273 30.2109 17.875 31.2031 17.875C32.1953 17.875 33.0859 18.0273 33.875 18.332C35.3359 18.9102 36.0664 19.7148 36.0664 20.7461V22.2461L28.6836 27.9531C28.6836 28.3438 28.9258 28.6367 29.4102 28.832C29.9023 29.0273 30.5 29.125 31.2031 29.125C31.9062 29.125 32.5 29.0273 32.9844 28.832C33.4766 28.6367 33.7227 28.3438 33.7227 27.9531V26.8633L35.9492 25.8086H36.0664ZM28.6836 25.4805L33.7227 21.4258V21.1562C33.7227 20.7656 33.4766 20.4727 32.9844 20.2773C32.5 20.082 31.9062 19.9844 31.2031 19.9844C30.5 19.9844 29.9023 20.082 29.4102 20.2773C28.9258 20.4727 28.6836 20.7656 28.6836 21.1562V25.4805ZM48.4883 30.4141L46.2617 31.4688H46.1445V30.8359C45.3945 31.1016 44.5938 31.2344 43.7422 31.2344C42.8281 31.2344 41.9766 31.082 41.1875 30.7773C39.7266 30.1992 38.9961 29.3945 38.9961 28.3633V25.1992C38.9961 24.1523 39.7266 23.3477 41.1875 22.7852C41.9766 22.4805 42.8281 22.3281 43.7422 22.3281C44.6016 22.3281 45.4023 22.4609 46.1445 22.7266V21.1562C46.1445 20.7656 45.8984 20.4727 45.4062 20.2773C44.9219 20.082 44.3281 19.9844 43.625 19.9844H40.7773V19.8672L41.7148 17.875H43.625C44.6172 17.875 45.5078 18.0273 46.2969 18.332C47.7578 18.8945 48.4883 19.6992 48.4883 20.7461V30.4141ZM41.3398 27.9531C41.3398 28.3438 41.582 28.6367 42.0664 28.832C42.5586 29.0273 43.1172 29.125 43.7422 29.125C44.3672 29.125 44.9219 29.0273 45.4062 28.832C45.8984 28.6367 46.1445 28.3438 46.1445 27.9531V25.6094C46.1445 25.2188 45.8984 24.9258 45.4062 24.7305C44.9219 24.5352 44.3672 24.4375 43.7422 24.4375C43.1172 24.4375 42.5586 24.5352 42.0664 24.7305C41.582 24.9258 41.3398 25.2188 41.3398 25.6094V27.9531ZM52.0039 31.4688V20.7461C52.0039 19.6992 52.7344 18.8945 54.1953 18.332C54.9844 18.0273 55.875 17.875 56.8672 17.875H58.4492V17.9922L57.5117 19.9844H56.8672C56.1641 19.9844 55.5664 20.082 55.0742 20.2773C54.5898 20.4727 54.3477 20.7656 54.3477 21.1562V30.4141L52.1211 31.4688H52.0039ZM63.207 31.4688L58.6836 18.6016L60.7109 17.6406H60.8281L64.1445 27.4141L67.3906 17.6406H67.5078L69.5352 18.6016L65.3516 30.5078L63.3242 31.4688H63.207ZM73.6367 27.9531C73.6367 28.3438 73.8789 28.6367 74.3633 28.832C74.8555 29.0273 75.4531 29.125 76.1562 29.125C76.8594 29.125 77.4531 29.0273 77.9375 28.832C78.4297 28.6367 78.6758 28.3438 78.6758 27.9531V21.1562C78.6758 20.7656 78.4297 20.4727 77.9375 20.2773C77.4531 20.082 76.8594 19.9844 76.1562 19.9844C75.4531 19.9844 74.8555 20.082 74.3633 20.2773C73.8789 20.4727 73.6367 20.7656 73.6367 21.1562V27.9531ZM71.293 28.3633V20.7461C71.293 19.7148 72.0234 18.9102 73.4844 18.332C74.2734 18.0273 75.1641 17.875 76.1562 17.875C77.1484 17.875 78.0391 18.0273 78.8281 18.332C80.2891 18.9102 81.0195 19.7148 81.0195 20.7461V28.3633C81.0195 29.3945 80.2891 30.1992 78.8281 30.7773C78.0391 31.082 77.1484 31.2344 76.1562 31.2344C75.1641 31.2344 74.2734 31.082 73.4844 30.7773C72.0234 30.1992 71.293 29.3945 71.293 28.3633ZM86.082 31.4688V20.2422H83.0703V20.125L84.0195 18.1094H86.082V13.8906L88.3086 12.8359H88.4258V18.1094H91.4375V18.2266L90.4883 20.2422H88.4258V30.4141L86.1992 31.4688H86.082ZM103.215 25.8086V28.3633C103.215 29.3945 102.484 30.1992 101.023 30.7773C100.234 31.082 99.3438 31.2344 98.3516 31.2344C97.3594 31.2344 96.4688 31.082 95.6797 30.7773C94.2188 30.1992 93.4883 29.3945 93.4883 28.3633V20.7461C93.4883 19.7148 94.2188 18.9102 95.6797 18.332C96.4688 18.0273 97.3594 17.875 98.3516 17.875C99.3438 17.875 100.234 18.0273 101.023 18.332C102.484 18.9102 103.215 19.7148 103.215 20.7461V22.2461L95.832 27.9531C95.832 28.3438 96.0742 28.6367 96.5586 28.832C97.0508 29.0273 97.6484 29.125 98.3516 29.125C99.0547 29.125 99.6484 29.0273 100.133 28.832C100.625 28.6367 100.871 28.3438 100.871 27.9531V26.8633L103.098 25.8086H103.215ZM95.832 25.4805L100.871 21.4258V21.1562C100.871 20.7656 100.625 20.4727 100.133 20.2773C99.6484 20.082 99.0547 19.9844 98.3516 19.9844C97.6484 19.9844 97.0508 20.082 96.5586 20.2773C96.0742 20.4727 95.832 20.7656 95.832 21.1562V25.4805Z" fill="#E5E5E5"/>
<g style="mix-blend-mode:soft-light">
<circle cx="20" cy="20" r="20" fill="#C4C4C4"/>
</g>
</svg>
